Patient4_TMGait_0pt6_01_left_01_GRF.mot
version=1
nRows=39
nColumns=19
inDegrees=no
endheader
time	F1x	F1y	F1z	M1x	M1y	M1z	F2x	F2y	F2z	M2x	M2y	M2z	EC1x	EC1y	EC1z	EC2x	EC2y	EC2z
1.17	14.0463	-6.4395	3.4197	-0.76422	2.8003	-2.4573	-48.7015	718.9029	-58.055	290.2907	70.3109	631.3121	-0.0592	0.0182	-0.0073	-0.0462	0.0165	0.9585
1.1821	9.2848	-3.8895	2.2	-0.66007	1.9258	-1.2112	-45.5985	717.5571	-57.0239	289.7051	67.735	628.3849	-0.0592	0.0182	-0.0073	-0.0462	0.0165	0.9585
1.1943	5.2763	-1.693	1.2354	-0.59549	1.1227	-0.15207	-42.5781	717.847	-55.9703	289.7945	65.1892	626.115	-0.0592	0.0182	-0.0073	-0.0462	0.0165	0.9585
1.2064	2.224	0.024799	0.55324	-0.57091	0.45829	0.68382	-39.7776	720.2645	-54.9496	290.8026	62.7967	624.9092	-0.0592	0.0182	-0.0073	-0.0462	0.0165	0.9585
1.2186	0.11795	1.2451	0.12172	-0.57577	-0.039244	1.2697	-37.2113	724.9402	-53.9999	292.8244	60.6051	624.9094	-0.0592	0.0182	-0.0073	-0.0462	0.0165	0.9585
1.2307	-1.2013	2.0337	-0.11513	-0.59915	-0.3824	1.6551	-34.7924	731.6328	-53.1212	295.7951	58.5797	625.9478	-0.0592	0.0182	-0.0073	-0.0462	0.0165	0.9585
1.2429	-1.9169	2.4764	-0.2174	-0.62855	-0.59457	1.8682	-32.3855	739.7934	-52.3108	299.5072	56.6538	627.6142	-0.0592	0.0182	-0.0073	-0.0462	0.0165	0.9585
1.255	-2.2366	2.6623	-0.23745	-0.65154	-0.71463	1.9554	-29.8222	748.5935	-51.5531	303.6242	54.7268	629.2659	-0.0592	0.0182	-0.0073	-0.0462	0.0165	0.9585
1.2671	-2.3258	2.6436	-0.2065	-0.65126	-0.78369	1.9229	-26.9243	757.0425	-50.8582	307.7275	52.7144	630.1317	-0.0592	0.0182	-0.0073	-0.0462	0.0165	0.9585
1.2793	-2.3194	2.4466	-0.15399	-0.61031	-0.83044	1.7704	-23.5228	764.1447	-50.2176	311.3864	50.5168	629.4439	-0.0592	0.0182	-0.0073	-0.0462	0.0165	0.9585
1.2914	-2.3131	2.0593	-0.086117	-0.5088	-0.88736	1.4671	-19.4967	769.0884	-49.6192	314.2358	48.0527	626.6096	-0.0592	0.0182	-0.0073	-0.0462	0.0165	0.9585
1.3036	-2.3483	1.4487	-0.014823	-0.32542	-0.96095	0.96139	-14.8269	771.3839	-49.0318	316.0381	45.273	621.3387	-0.0592	0.0182	-0.0073	-0.0462	0.0165	0.9585
1.3157	-2.4402	0.58032	0.06121	-0.042064	-1.0586	0.21625	-9.6127	770.8992	-48.4466	316.7031	42.2026	613.6586	-0.0592	0.0182	-0.0073	-0.0462	0.0165	0.9585
1.3279	-2.5504	-0.57344	0.12937	0.3515	-1.1593	-0.8058	-4.0515	767.8519	-47.8767	316.2796	38.9277	603.9175	-0.0592	0.0182	-0.0073	-0.0462	0.0165	0.9585
1.34	-2.6116	-1.9825	0.17877	0.84454	-1.2304	-2.0777	1.621	762.624	-47.3836	314.8891	35.5984	592.5908	-0.0592	0.0182	-0.0073	-0.0462	0.0165	0.9585
1.3521	-2.4756	-3.5391	0.18846	1.3959	-1.2014	-3.5097	7.1483	755.6905	-47.0394	312.697	32.3857	580.2163	-0.0592	0.0182	-0.0073	-0.0462	0.0165	0.9585
1.3643	-1.9592	-4.9929	0.1354	1.9112	-0.98129	-4.8618	12.3243	747.6036	-46.9137	309.9106	29.4472	567.3594	-0.0592	0.0182	-0.0073	-0.0462	0.0165	0.9585
1.3764	-0.80317	-5.8897	-0.015026	2.2239	-0.44179	-5.7195	16.9772	738.9884	-47.0484	306.7748	26.9075	554.6171	-0.0592	0.0182	-0.0073	-0.0462	0.0165	0.9585
1.3886	1.2548	-5.5172	-0.29484	2.0772	0.54475	-5.4063	21.001	730.4745	-47.4748	303.5435	24.8616	542.5582	-0.0592	0.0182	-0.0073	-0.0462	0.0165	0.9585
1.4007	4.4831	-2.8775	-0.73848	1.113	2.1058	-2.9969	24.3325	722.6354	-48.2103	300.4482	23.3698	531.6836	-0.0592	0.0182	-0.0073	-0.0462	0.0165	0.9585
1.4129	9.0302	3.3028	-1.3663	-1.1196	4.3155	2.7176	26.9582	715.9236	-49.2392	297.6738	22.4392	522.3804	-0.0592	0.0182	-0.0073	-0.0462	0.0165	0.9585
1.425	14.8568	14.4487	-2.1825	-5.1242	7.1599	13.08	28.8969	710.6257	-50.5057	295.3374	22.0267	514.89	-0.0592	0.0182	-0.0073	-0.0462	0.0165	0.9585
1.4371	21.5145	31.9263	-3.138	-11.3761	10.4326	29.3948	30.2015	706.7693	-51.8944	293.448	22.0276	509.2254	-0.0592	0.0182	-0.0073	-0.0462	0.0165	0.9585
1.4493	27.9756	56.5911	-4.1032	-20.1675	13.6427	52.4942	30.9879	703.9808	-53.2473	291.856	22.2853	505.0665	-0.0592	0.0182	-0.0073	-0.0462	0.0165	0.9585
1.4614	32.4434	88.2529	-4.8224	-31.4158	15.9123	82.2675	31.4258	701.4531	-54.3665	290.2412	22.5898	501.7498	-0.0592	0.0182	-0.0073	-0.0462	0.0165	0.9585
1.4736	32.9052	125.5532	-4.9514	-44.6188	16.2097	117.5465	31.7376	698.0163	-55.0459	288.1513	22.7077	498.2959	-0.0592	0.0182	-0.0073	-0.0462	0.0165	0.9585
1.4857	28.4624	166.3997	-4.2071	-59.0095	13.9572	156.4514	32.1352	692.346	-55.0636	285.0855	22.3947	493.5907	-0.0592	0.0182	-0.0073	-0.0462	0.0165	0.9585
1.4979	20.24	208.1197	-2.3798	-73.6076	9.3534	196.45	32.807	683.0404	-54.243	280.5178	21.4549	486.4525	-0.0592	0.0182	-0.0073	-0.0462	0.0165	0.9585
1.51	10.2523	247.0218	0.68791	-87.1077	2.9543	233.7874	33.8226	668.6844	-52.4746	273.9157	19.7861	475.7309	-0.0592	0.0182	-0.0073	-0.0462	0.0165	0.9585
1.5221	0.13191	280.2316	4.9017	-98.5224	-4.5606	265.4657	35.1438	648.0239	-49.7723	264.8071	17.4214	460.4472	-0.0592	0.0182	-0.0073	-0.0462	0.0165	0.9585
1.5343	-9.1063	307.4481	9.5425	-107.8067	-12.13	290.9961	36.5951	620.2603	-46.2651	252.8903	14.5167	440.0267	-0.0592	0.0182	-0.0073	-0.0462	0.0165	0.9585
1.5464	-17.0823	330.538	14.0889	-115.6751	-19.1092	312.1099	37.9333	585.1212	-42.182	238.0685	11.3208	414.308	-0.0592	0.0182	-0.0073	-0.0462	0.0165	0.9585
1.5586	-23.6907	352.2385	18.0311	-123.1437	-24.9737	331.3305	38.8524	542.8807	-37.7255	220.4573	8.0758	383.5705	-0.0592	0.0182	-0.0073	-0.0462	0.0165	0.9585
1.5707	-28.9488	375.1345	21.2065	-131.1378	-29.5742	351.0705	39.0204	494.2753	-33.0652	200.3593	5.0188	348.4313	-0.0592	0.0182	-0.0073	-0.0462	0.0165	0.9585
1.5829	-32.8344	401.1285	23.5873	-140.3187	-32.882	373.0298	38.1033	440.5299	-28.3404	178.2711	2.3706	309.8525	-0.0592	0.0182	-0.0073	-0.0462	0.0165	0.9585
1.595	-35.4133	431.3665	25.4419	-151.0469	-35.1812	398.2578	35.8452	383.3314	-23.7188	154.8727	0.34915	269.0872	-0.0592	0.0182	-0.0073	-0.0462	0.0165	0.9585
1.6071	-36.7929	466.2322	27.092	-163.4007	-36.8243	427.1086	32.1456	324.79	-19.3595	131.0101	-0.9015	227.6406	-0.0592	0.0182	-0.0073	-0.0462	0.0165	0.9585
1.6193	-37.1977	505.3525	28.9853	-177.1783	-38.3183	459.2916	27.164	267.2788	-15.3912	107.6332	-1.3637	187.1624	-0.0592	0.0182	-0.0073	-0.0462	0.0165	0.9585
1.6314	-36.8985	547.6559	31.4438	-191.9419	-40.0636	493.8857	21.3425	213.1403	-11.8857	85.6802	-1.177	149.2266	-0.0592	0.0182	-0.0073	-0.0462	0.0165	0.9585
